<svg width="512" height="512" viewBox="0 0 512 512" fill="none" xmlns="http://www.w3.org/2000/svg">
  <rect width="512" height="512" rx="96" fill="#09090b"/>
  <path d="M256 120C181.3 120 120 181.3 120 256C120 330.7 181.3 392 256 392C330.7 392 392 330.7 392 256C392 181.3 330.7 120 256 120ZM256 360C199.1 360 152 312.9 152 256C152 199.1 199.1 152 256 152C312.9 152 360 199.1 360 256C360 312.9 312.9 360 256 360Z" fill="white"/>
  <path d="M256 184C216.3 184 184 216.3 184 256C184 295.7 216.3 328 256 328C295.7 328 328 295.7 328 256C328 216.3 295.7 184 256 184ZM256 296C234 296 216 278 216 256C216 234 234 216 256 216C278 216 296 234 296 256C296 278 278 296 256 296Z" fill="white"/>
  <circle cx="256" cy="256" r="24" fill="white"/>
</svg>
